<?xml version="1.0" encoding="UTF-8" standalone="no"?>
<!DOCTYPE svg PUBLIC "-//W3C//DTD SVG 1.1//EN" "http://www.w3.org/Graphics/SVG/1.1/DTD/svg11.dtd">
<!-- Created with Vectornator (http://vectornator.io/) -->
<svg height="100%" stroke-miterlimit="10" style="fill-rule:nonzero;clip-rule:evenodd;stroke-linecap:round;stroke-linejoin:round;" version="1.1" viewBox="0 0 128 128" width="100%" xml:space="preserve" xmlns="http://www.w3.org/2000/svg" xmlns:vectornator="http://vectornator.io" xmlns:xlink="http://www.w3.org/1999/xlink">
<defs>
<path d="M-1.42109e-14 64C-1.42109e-14 28.6538 28.6538 0 64 0C99.3462 0 128 28.6538 128 64C128 99.3462 99.3462 128 64 128C28.6538 128-1.42109e-14 99.3462-1.42109e-14 64Z" id="Fill"/>
</defs>
<clipPath id="ArtboardFrame">
<rect height="128" width="128" x="0" y="0"/>
</clipPath>
<g clip-path="url(#ArtboardFrame)" id="Untitled" vectornator:layerName="Untitled">
<path d="M1.94735 63.4485C1.94735 29.0689 29.7369 1.19875 64.0171 1.19875C98.2973 1.19875 126.087 29.0689 126.087 63.4485C126.087 97.8281 98.2973 125.698 64.0171 125.698C29.7369 125.698 1.94735 97.8281 1.94735 63.4485Z" fill="#ff4343" fill-rule="nonzero" opacity="1" stroke="none"/>
<path d="M38.1235 23.626C40.0711 22.5637 44.5007 23.3303 44.5007 23.3303L50.4702 19.327L60.6224 16.4215L61.4548 15.7157L67.0525 16.4871L70.8664 17.0126L68.1934 15.4229L70.3152 15.6256L75.6497 18.5506L74.0688 15.5644L80.3768 18.3718L84.8696 20.5973L91.0573 31.1772L98.544 36.4495L100.881 39.3577L101.331 45.5653C101.331 45.5653 97.9833 51.4489 93.3192 54.3449C88.6551 57.2409 82.6569 57.1827 82.6569 57.1827C82.6569 57.1827 73.7843 64.308 73.2617 80.2214C73.0394 86.9922 78.0894 94.1283 79.6442 101.501C81.7437 111.457 82.0153 120.85 82.0153 120.85L66.171 124.772C66.171 124.772 56.9992 123.048 47.0094 119.373C37.0195 115.698 26.2117 110.072 26.2117 110.072L29.7538 97.453L35.6147 86.217C35.6147 86.217 37.7478 83.0464 38.3679 72.2294C38.9881 61.4124 38.7859 42.8215 38.7859 42.8215L34.3756 38.2907C34.3756 38.2907 27.9261 29.1882 38.1235 23.626Z" fill="#ffffff" fill-rule="nonzero" opacity="1" stroke="none"/>
<path d="M58.331 0.27091C56.1078 0.471584 54.0068 0.761447 52.0281 1.1405C50.0494 1.51955 48.0151 2.02123 45.9252 2.64555C43.8353 3.26987 41.7899 3.99453 39.789 4.81952C37.7881 5.64452 35.8538 6.5587 33.9863 7.56207C32.1187 8.56544 30.4291 9.56881 28.9172 10.5722C27.4054 11.5756 25.7824 12.7796 24.0483 14.1843C22.3142 15.589 20.6801 17.0495 19.146 18.5657C17.612 20.0819 16.2891 21.4978 15.1775 22.8133C14.0658 24.1288 13.1432 25.2883 12.4095 26.2917C11.6758 27.295 10.9755 28.3095 10.3085 29.3352C9.64155 30.3609 8.81894 31.7656 7.84071 33.5494C6.86247 35.3331 5.90647 37.3399 4.9727 39.5696C4.03893 41.7993 3.4053 43.4159 3.07181 44.4192C2.73832 45.4226 2.40483 46.5486 2.07134 47.7972C1.73785 49.0459 1.39324 50.6178 1.03752 52.5131C0.681801 54.4083 0.426125 56.1475 0.270497 57.7306C0.114869 59.3137 0.0259381 61.2313 0.00370544 63.4833C-0.0185272 65.7353 0.059287 67.8535 0.237148 69.8379C0.415009 71.8224 0.681801 73.7957 1.03752 75.7578C1.39324 77.72 1.91571 79.8828 2.60492 82.2463C3.29413 84.6098 4.00558 86.6946 4.73926 88.5006C5.47293 90.3067 6.31777 92.1239 7.27378 93.9523C8.22978 95.7807 9.21913 97.4752 10.2418 99.036C11.2645 100.597 12.4873 102.269 13.9102 104.053C15.3331 105.837 16.8449 107.531 18.4457 109.137C20.0464 110.742 21.7028 112.236 23.4147 113.618C25.1266 115.001 26.9497 116.316 28.8839 117.565C30.8181 118.814 32.6746 119.895 34.4532 120.809C36.2318 121.723 38.0326 122.548 39.8557 123.284C41.6788 124.02 43.6797 124.711 45.8585 125.358C48.0373 126.004 50.1161 126.517 52.0948 126.896C54.0735 127.275 55.9188 127.554 57.6307 127.732C59.3426 127.911 61.488 128 64.067 128C66.646 128 68.8137 127.911 70.5701 127.732C72.3265 127.554 74.1495 127.286 76.0393 126.93C77.9291 126.573 80.0301 126.049 82.3423 125.358C84.6545 124.667 86.7443 123.931 88.6119 123.15C90.4794 122.37 92.1802 121.578 93.7142 120.776C95.2483 119.973 97.0269 118.903 99.0501 117.565C101.073 116.227 102.596 115.157 103.619 114.354C104.642 113.551 105.531 112.816 106.287 112.147C107.043 111.478 108.11 110.441 109.488 109.036C110.867 107.632 112.223 106.104 113.557 104.454C114.891 102.804 116.114 101.143 117.225 99.4708C118.337 97.7985 119.404 96.0036 120.427 94.0861C121.449 92.1685 122.361 90.2398 123.161 88.3C123.962 86.3601 124.684 84.3199 125.329 82.1794C125.974 80.0389 126.474 78.0767 126.83 76.293C127.185 74.5092 127.475 72.5247 127.697 70.3396C127.919 68.1545 128.019 65.9805 127.997 63.8177C127.975 61.6549 127.864 59.6147 127.663 57.6972C127.463 55.7796 127.274 54.308 127.097 53.2823C126.919 52.2567 126.674 51.0749 126.363 49.7371C126.052 48.3993 125.64 46.9054 125.129 45.2554C124.618 43.6054 123.984 41.8551 123.228 40.0044C122.472 38.1537 121.627 36.3365 120.694 34.5527C119.76 32.769 118.704 30.9852 117.525 29.2014C116.347 27.4177 115.024 25.6227 113.557 23.8167C112.09 22.0106 110.611 20.3606 109.121 18.8667C107.632 17.3728 106.153 16.0127 104.686 14.7863C103.219 13.56 101.573 12.3225 99.7504 11.0739C97.9273 9.82523 95.9597 8.63233 93.8476 7.49518C91.7355 6.35803 89.8124 5.43269 88.0783 4.71919C86.3441 4.00568 84.4432 3.33677 82.3756 2.71245C80.308 2.08813 78.3182 1.58644 76.4061 1.20739C74.4941 0.828338 72.5821 0.538476 70.6701 0.337801C68.7581 0.137127 66.7794 0.0256417 64.734 0.00334457C62.6886-0.0189526 60.5543 0.0702359 58.331 0.27091ZM64.734 5.62222C66.4237 5.64452 68.1578 5.74485 69.9364 5.92323C71.7151 6.10161 73.3714 6.33573 74.9054 6.62559C76.4395 6.91545 78.1181 7.3168 79.9411 7.82964C81.7642 8.34247 83.4539 8.8999 85.0102 9.50192C86.5665 10.1039 88.0116 10.7283 89.3455 11.3749C90.6795 12.0215 91.9912 12.7239 93.2807 13.482C94.5702 14.2401 96.0264 15.1988 97.6494 16.3583C99.2724 17.5177 100.74 18.666 102.051 19.8032C103.363 20.9403 104.653 22.1667 105.92 23.4822C107.187 24.7977 108.377 26.1467 109.488 27.5291C110.6 28.9116 111.612 30.2828 112.523 31.643C113.435 33.0031 114.413 34.6531 115.458 36.5929C116.503 38.5328 117.303 40.1493 117.859 41.4426C118.415 42.7358 118.937 44.0959 119.426 45.5229C119.915 46.9499 120.382 48.5665 120.827 50.3726C121.272 52.1786 121.627 53.9958 121.894 55.8242C122.161 57.6526 122.339 59.3248 122.428 60.8411C122.517 62.3573 122.528 64.141 122.461 66.1924C122.394 68.2437 122.25 70.1167 122.028 71.8112C121.805 73.5058 121.527 75.1112 121.194 76.6274C120.86 78.1436 120.405 79.8159 119.826 81.6443C119.248 83.4726 118.681 85.0557 118.126 86.3936C117.57 87.7314 116.881 89.1919 116.058 90.7749C115.235 92.358 114.368 93.8631 113.457 95.2901C112.545 96.7171 111.567 98.1107 110.522 99.4708C109.477 100.831 108.61 101.901 107.921 102.682C107.232 103.462 106.42 104.32 105.486 105.257C104.553 106.193 103.619 107.074 102.685 107.899C101.751 108.724 100.673 109.605 99.4503 110.541C98.2275 111.478 96.8491 112.437 95.315 113.418C93.7809 114.399 92.1357 115.335 90.3794 116.227C88.623 117.119 86.9778 117.866 85.4437 118.468C83.9097 119.07 83.1204 119.371 83.0759 119.371C83.0315 119.371 82.9981 119.326 82.9759 119.237C82.9537 119.148 82.8536 118.579 82.6757 117.531C82.4979 116.484 82.1199 113.708 81.5419 109.204C80.9638 104.7 80.5192 101.544 80.2079 99.7384C79.8967 97.9323 79.5521 96.4719 79.1741 95.357C78.7962 94.2422 78.4849 93.4395 78.2403 92.9489C77.9958 92.4584 77.5845 91.7783 77.0064 90.9087C76.4284 90.0391 75.9615 89.2699 75.6058 88.601C75.25 87.9321 74.9277 87.0959 74.6387 86.0926C74.3496 85.0892 74.1384 84.0412 74.005 82.9487C73.8716 81.8561 73.8049 80.7189 73.8049 79.5372C73.8049 78.3554 73.8383 77.3744 73.905 76.594C73.9717 75.8136 74.094 74.9105 74.2718 73.8849C74.4497 72.8592 74.7609 71.6106 75.2056 70.139C75.6502 68.6673 76.1505 67.3295 76.7063 66.1255C77.2621 64.9214 77.7957 63.9069 78.307 63.0819C78.8184 62.2569 79.4076 61.4208 80.0745 60.5735C80.7415 59.7262 81.3418 59.0238 81.8754 58.4664C82.409 57.909 82.7869 57.5634 83.0092 57.4296C83.2316 57.2958 83.8985 57.2178 85.0102 57.1955C86.1218 57.1732 87.2334 57.0505 88.3451 56.8276C89.4567 56.6046 90.4905 56.3036 91.4465 55.9245C92.4025 55.5455 93.3141 55.0661 94.1811 54.4864C95.0482 53.9066 95.7597 53.3269 96.3155 52.7472C96.8713 52.1675 97.2604 51.7215 97.4827 51.4094C97.705 51.0972 97.9051 50.7516 98.083 50.3726C98.2608 49.9935 98.6054 49.6479 99.1168 49.3357C99.6281 49.0236 100.062 48.6557 100.417 48.232C100.773 47.8084 101.029 47.4405 101.184 47.1283C101.34 46.8162 101.473 46.426 101.585 45.9577C101.696 45.4895 101.751 45.0881 101.751 44.7537C101.751 44.4192 101.696 44.0179 101.585 43.5496C101.473 43.0814 101.551 42.5463 101.818 41.9442C102.085 41.3422 102.207 40.8628 102.185 40.5061C102.163 40.1493 102.096 39.8372 101.985 39.5696C101.874 39.302 101.696 39.001 101.451 38.6666C101.207 38.3321 100.818 37.8973 100.284 37.3622C99.7504 36.827 99.1057 36.2808 98.3498 35.7233C97.5938 35.1659 96.4489 34.419 94.9148 33.4825C93.3808 32.546 92.3581 31.8436 91.8467 31.3754C91.3354 30.9072 90.8462 30.2717 90.3794 29.469C89.9125 28.6663 89.4789 27.7298 89.0787 26.6596C88.6786 25.5893 88.3117 24.7309 87.9782 24.0842C87.6447 23.4376 87.3113 22.8802 86.9778 22.412C86.6443 21.9437 86.1774 21.442 85.5771 20.9069C84.9768 20.3718 84.4321 19.9927 83.943 19.7697C83.4539 19.5468 82.9981 19.4018 82.5757 19.335C82.1533 19.2681 81.653 18.9559 81.075 18.3985C80.4969 17.841 79.9078 17.4954 79.3075 17.3617C78.7072 17.2279 78.0847 16.9603 77.44 16.559C76.7952 16.1576 76.2394 15.8455 75.7725 15.6225C75.3056 15.3995 74.9833 15.2657 74.8054 15.2211C74.6275 15.1765 74.3163 15.1654 73.8716 15.1877C73.6493 15.1988 73.427 15.21 73.2046 15.2211C73.3492 15.5221 73.4937 15.8232 73.6382 16.1242C73.7827 16.4252 73.9272 16.7262 74.0717 17.0272C73.8383 16.8711 73.6048 16.715 73.3714 16.559C72.9045 16.2468 72.282 15.9235 71.5039 15.589C70.7257 15.2546 70.0921 15.0428 69.603 14.9536C69.1138 14.8644 68.7025 14.8198 68.369 14.8198C68.0356 14.8198 67.7132 14.8421 67.4019 14.8867C67.0907 14.9313 66.935 14.9759 66.935 15.0205C66.935 15.0651 67.0129 15.1654 67.1685 15.3215C67.3241 15.4776 68.0911 15.8789 69.4696 16.5255C70.848 17.1721 71.5705 17.4843 71.6372 17.462C71.6706 17.4508 71.7039 17.4397 71.7373 17.4285C71.4594 17.1721 71.1815 16.9157 70.9036 16.6593C70.6257 16.4029 70.3478 16.1465 70.0698 15.89C70.3366 16.0127 70.6034 16.1353 70.8702 16.2579C71.4038 16.5032 72.0597 16.8823 72.8378 17.3951C73.616 17.9079 74.4941 18.5434 75.4724 19.3015C76.4506 20.0596 76.962 20.4164 77.0064 20.3718C77.0509 20.3272 77.0509 20.238 77.0064 20.1042C76.962 19.9704 76.8063 19.6471 76.5395 19.1343C76.2727 18.6214 76.006 18.1755 75.7392 17.7965C75.4724 17.4174 75.1611 17.0383 74.8054 16.6593C74.6275 16.4698 74.4497 16.2802 74.2718 16.0907C74.4497 16.1465 74.6275 16.2022 74.8054 16.2579C75.1611 16.3694 75.6614 16.6036 76.3061 16.9603C76.9508 17.3171 77.6956 17.8522 78.5405 18.5657C78.9629 18.9225 79.3853 19.2792 79.8077 19.636C79.8189 19.6025 79.83 19.5691 79.8411 19.5356C79.8633 19.4687 79.8411 19.3684 79.7744 19.2346C79.7077 19.1008 79.5298 18.8333 79.2408 18.4319C79.0963 18.2312 78.9518 18.0306 78.8073 17.8299C78.8851 17.8633 78.9629 17.8968 79.0407 17.9302C79.1963 17.9971 79.5854 18.3316 80.2079 18.9336C80.8304 19.5356 81.4307 20.2603 82.0088 21.1076C82.2978 21.5312 82.5868 21.9549 82.8758 22.3785C82.8647 22.2336 82.8536 22.0886 82.8425 21.9437C82.8203 21.6539 82.7091 21.2302 82.509 20.6728C82.409 20.3941 82.3089 20.1154 82.2089 19.8366C82.3534 19.9258 82.4979 20.015 82.6424 20.1042C82.9314 20.2826 83.3761 20.6393 83.9764 21.1745C84.5766 21.7096 85.1769 22.3785 85.7772 23.1812C86.3775 23.9839 86.8221 24.6528 87.1112 25.1879C87.4002 25.7231 87.8448 26.7153 88.4451 28.1646C89.0454 29.6139 89.5012 30.5504 89.8124 30.9741C90.1237 31.3977 90.7017 31.9328 91.5466 32.5794C92.3914 33.2261 93.2696 33.8058 94.1811 34.3186C95.0927 34.8315 95.9597 35.3666 96.7824 35.924C97.605 36.4814 98.2942 37.0277 98.85 37.5629C99.4058 38.098 99.8282 38.5997 100.117 39.0679C100.262 39.302 100.406 39.5362 100.551 39.7703C100.328 39.7145 100.106 39.6588 99.8838 39.603C99.4392 39.4916 98.8722 39.4358 98.183 39.4358C97.4938 39.4358 96.8268 39.4804 96.1821 39.5696C95.5373 39.6588 95.1038 39.6699 94.8815 39.603C94.6591 39.5362 94.2034 39.302 93.5142 38.9007C92.8249 38.4993 92.2914 38.1426 91.9134 37.8304C91.5355 37.5183 91.3131 37.3064 91.2464 37.195C91.1797 37.0835 91.1464 36.9274 91.1464 36.7267C91.1464 36.526 91.2131 36.3477 91.3465 36.1916C91.4799 36.0355 91.6688 35.9017 91.9134 35.7902C92.158 35.6787 92.5026 35.5784 92.9472 35.4892C93.1696 35.4446 93.3919 35.4 93.6142 35.3554C93.4252 35.2997 93.2362 35.244 93.0473 35.1882C92.6693 35.0767 92.1135 35.0433 91.3798 35.0879C90.6461 35.1325 90.0459 35.2551 89.579 35.4558C89.1121 35.6565 88.723 35.9017 88.4118 36.1916C88.1005 36.4814 87.8671 36.827 87.7114 37.2284C87.5558 37.6297 87.4891 38.0422 87.5113 38.4659C87.5336 38.8895 87.6225 39.3578 87.7781 39.8706C87.9338 40.3834 88.145 40.9186 88.4118 41.476C88.6786 42.0334 89.0232 42.602 89.4456 43.1817C89.868 43.7615 90.246 44.2185 90.5794 44.553C90.9129 44.8875 91.302 45.2219 91.7467 45.5564C92.1913 45.8908 92.6693 46.1918 93.1807 46.4594C93.692 46.727 94.07 46.8942 94.3145 46.9611C94.4368 46.9945 94.5591 47.028 94.6814 47.0614C94.5813 47.1841 94.4813 47.3067 94.3812 47.4293C94.1811 47.6746 93.8588 47.9533 93.4141 48.2655C92.9695 48.5776 92.4581 48.8452 91.8801 49.0682C91.302 49.2911 90.7017 49.4584 90.0792 49.5699C89.4567 49.6813 88.6341 49.7371 87.6114 49.7371C86.5887 49.7371 85.5993 49.6813 84.6433 49.5699C83.6873 49.4584 82.9092 49.3357 82.3089 49.202C81.7086 49.0682 81.0416 48.8786 80.308 48.6334C79.5743 48.3881 78.3515 47.8084 76.6396 46.8942C74.9277 45.98 73.7938 45.4449 73.238 45.2888C72.6822 45.1327 72.1819 45.0435 71.7373 45.0212C71.2926 44.9989 70.8702 45.0324 70.47 45.1216C70.0698 45.2108 69.7364 45.3223 69.4696 45.456C69.2028 45.5898 68.8804 45.8016 68.5024 46.0915C68.1245 46.3814 67.6576 46.8162 67.1018 47.3959C66.546 47.9756 66.1236 48.5107 65.8345 49.0013C65.5455 49.4918 65.4121 49.7705 65.4343 49.8374C65.4566 49.9043 65.5122 49.9378 65.6011 49.9378C65.69 49.9378 65.979 49.8486 66.4682 49.6702C66.9573 49.4918 67.5909 49.3134 68.369 49.1351C69.1472 48.9567 70.0031 48.8563 70.9369 48.8341C71.8707 48.8118 72.6822 48.9009 73.3714 49.1016C74.0606 49.3023 75.05 49.7482 76.3394 50.4394C77.6289 51.1307 78.496 51.5654 78.9407 51.7438C79.3853 51.9222 79.9856 52.1117 80.7415 52.3124C81.4974 52.5131 82.2756 52.658 83.0759 52.7472C83.8763 52.8364 84.8545 52.8475 86.0106 52.7806C87.1667 52.7138 88.056 52.6023 88.6786 52.4462C89.3011 52.2901 89.8902 52.2232 90.4461 52.2455C91.0019 52.2678 91.5355 52.2567 92.0468 52.2121C92.5582 52.1675 93.1251 52.0783 93.7476 51.9445C94.3701 51.8107 94.9815 51.6212 95.5818 51.3759C95.8819 51.2533 96.1821 51.1307 96.4822 51.008C96.3266 51.2087 96.171 51.4094 96.0153 51.61C95.7041 52.0114 95.126 52.5131 94.2812 53.1151C93.4363 53.7171 92.636 54.1742 91.8801 54.4864C91.1241 54.7985 90.2571 55.055 89.2788 55.2556C88.3006 55.4563 87.1 55.5566 85.6772 55.5566C84.2543 55.5566 82.2644 55.3894 79.7077 55.055C77.1509 54.7205 75.3279 54.5087 74.2385 54.4195C73.1491 54.3303 71.7595 54.2857 70.0698 54.2857C68.3802 54.2857 65.8123 54.4195 62.3662 54.687C58.9202 54.9546 56.2523 55.0995 54.3625 55.1218C53.4176 55.133 52.4727 55.1441 51.5278 55.1553C52.306 55.0215 53.0841 54.8877 53.8623 54.7539C55.4185 54.4864 56.4968 54.2634 57.0971 54.085C57.6974 53.9066 58.0865 53.7617 58.2643 53.6502C58.3532 53.5945 58.4422 53.5387 58.5311 53.483C57.3972 53.4161 56.2634 53.3492 55.1295 53.2823C52.8618 53.1485 51.3055 53.0259 50.4607 52.9144C49.6158 52.8029 49.1934 52.7249 49.1934 52.6803C49.1934 52.6357 49.5602 52.4796 50.2939 52.2121C51.0276 51.9445 51.5612 51.6881 51.8947 51.4428C52.0614 51.3202 52.2282 51.1975 52.3949 51.0749C51.8057 51.0861 51.2166 51.0972 50.6274 51.1084C49.4491 51.1307 48.2485 51.2533 47.0257 51.4763C46.4143 51.5877 45.8029 51.6992 45.1915 51.8107C45.236 51.7327 45.2805 51.6546 45.3249 51.5766C45.4139 51.4205 45.6918 51.1084 46.1586 50.6401C46.6255 50.1719 47.1925 49.7036 47.8594 49.2354C48.5264 48.7672 48.8599 48.5107 48.8599 48.4661C48.8599 48.4439 48.8599 48.4216 48.8599 48.3993C48.4264 48.4216 47.9928 48.4439 47.5593 48.4661C46.6922 48.5107 45.6473 48.7337 44.4245 49.1351C43.8131 49.3357 43.2017 49.5364 42.5903 49.7371C42.9016 49.3134 43.2128 48.8898 43.5241 48.4661C44.1466 47.6189 44.7913 46.8719 45.4583 46.2253C46.1253 45.5787 46.7256 45.0435 47.2592 44.6199C47.526 44.4081 47.7927 44.1962 48.0595 43.9844C47.8594 43.9956 47.6594 44.0067 47.4593 44.0179C47.0591 44.0402 46.5922 44.1294 46.0586 44.2854C45.525 44.4415 44.7691 44.7537 43.7909 45.2219C43.3018 45.456 42.8126 45.6902 42.3235 45.9243C42.5347 45.5452 42.7459 45.1662 42.9572 44.7871C43.3796 44.029 43.9243 43.204 44.5912 42.3121C45.2582 41.4203 45.7473 40.8071 46.0586 40.4726C46.3699 40.1382 46.5922 39.8483 46.7256 39.603C46.7923 39.4804 46.859 39.3578 46.9257 39.2351C46.9034 39.224 46.8812 39.2128 46.859 39.2017C46.8145 39.1794 46.7033 39.2128 46.5255 39.302C46.3476 39.3912 45.9586 39.6699 45.3583 40.1382C44.758 40.6064 44.3912 40.8628 44.2578 40.9074C44.1911 40.9297 44.1244 40.952 44.0577 40.9743C44.3912 40.5507 44.7246 40.127 45.0581 39.7034C45.7251 38.8561 46.5811 37.9308 47.626 36.9274C48.1485 36.4257 48.6709 35.924 49.1934 35.4223C49.1601 35.4112 49.1267 35.4 49.0934 35.3889C49.0267 35.3666 48.8599 35.4112 48.5931 35.5227C48.3263 35.6342 47.8039 35.9352 47.0257 36.4257C46.2476 36.9162 45.8363 37.1504 45.7918 37.1281C45.7696 37.1169 45.7473 37.1058 45.7251 37.0946C46.0141 36.671 46.3032 36.2473 46.5922 35.8237C47.1702 34.9764 47.9817 33.9284 49.0267 32.6798C50.0716 31.4311 50.5829 30.7845 50.5607 30.7399C50.5385 30.6953 50.4384 30.7065 50.2606 30.7734C50.0827 30.8403 49.8048 30.9741 49.4268 31.1747C49.0489 31.3754 48.6709 31.6207 48.293 31.9105C47.915 32.2004 47.7038 32.3342 47.6594 32.3119C47.6371 32.3007 47.6149 32.2896 47.5927 32.2784C48.104 31.342 48.6154 30.4055 49.1267 29.469C50.1494 27.596 50.6496 26.6373 50.6274 26.5927C50.6052 26.5481 50.5274 26.5481 50.394 26.5927C50.2606 26.6373 50.0382 26.8491 49.727 27.2281C49.5714 27.4177 49.4157 27.6072 49.2601 27.7967C49.3157 27.6406 49.3713 27.4846 49.4268 27.3285C49.538 27.0163 49.9048 26.4812 50.5274 25.7231C50.8386 25.344 51.1499 24.965 51.4611 24.5859C51.4389 24.5748 51.4167 24.5636 51.3944 24.5525C51.35 24.5302 51.2166 24.5859 50.9942 24.7197C50.7719 24.8535 50.4051 25.1322 49.8937 25.5559C49.6381 25.7677 49.3824 25.9795 49.1267 26.1913C49.1267 25.868 49.1267 25.5447 49.1267 25.2214C49.1267 24.5748 49.1156 24.1846 49.0934 24.0508C49.0711 23.917 49.0378 23.8501 48.9933 23.8501C48.9488 23.8501 48.8488 23.9505 48.6932 24.1511C48.5375 24.3518 48.3708 24.7197 48.1929 25.2548C48.104 25.5224 48.0151 25.79 47.9261 26.0575C47.7149 25.7788 47.5037 25.5001 47.2925 25.2214C46.8701 24.664 46.381 24.2069 45.8252 23.8501C45.5473 23.6717 45.2693 23.4934 44.9914 23.315C45.3916 23.0474 45.7918 22.7799 46.192 22.5123C46.9924 21.9772 47.8039 21.4978 48.6265 21.0741C49.4491 20.6505 50.6385 20.1599 52.1948 19.6025C53.7511 19.0451 55.0184 18.6549 55.9966 18.4319C56.9748 18.2089 57.9197 18.0306 58.8312 17.8968C59.7428 17.763 60.621 17.6627 61.4658 17.5958C62.3107 17.5289 63.2889 17.4954 64.4005 17.4954C64.9563 17.4954 65.5122 17.4954 66.068 17.4954C65.8345 17.3728 65.6011 17.2502 65.3676 17.1275C64.9008 16.8823 64.3449 16.6704 63.7002 16.4921C63.3778 16.4029 63.0554 16.3137 62.7331 16.2245C62.7553 16.1911 62.7775 16.1576 62.7998 16.1242C62.8442 16.0573 63.1777 16.0573 63.8002 16.1242C64.4228 16.1911 65.0453 16.336 65.6678 16.559C66.2903 16.7819 66.8461 16.9492 67.3352 17.0606C67.8243 17.1721 68.2134 17.2167 68.5024 17.1944C68.647 17.1833 70.4912 17.0185 70.6357 17.0073C70.4356 16.8512 69.9506 16.753 69.7505 16.597C69.3503 16.2848 67.8431 16.0825 67.4874 15.9264C67.1317 15.7703 66.3792 15.6782 65.8012 15.5221C65.2231 15.3661 64.5117 15.2546 63.6668 15.1877C62.822 15.1208 62.2106 15.1208 61.8327 15.1877C61.4547 15.2546 61.0656 15.3772 60.6654 15.5556C60.2653 15.734 60.0429 15.8566 59.9985 15.9235C59.9762 15.9569 59.954 15.9904 59.9318 16.0238C60.0318 16.0573 60.1319 16.0907 60.2319 16.1242C60.332 16.1576 60.432 16.1911 60.532 16.2245C59.9985 16.2914 59.4649 16.3583 58.9313 16.4252C57.8641 16.559 56.6858 16.7819 55.3963 17.0941C54.1068 17.4063 53.0285 17.7184 52.1615 18.0306C51.2944 18.3427 50.4051 18.7218 49.4935 19.1677C48.582 19.6137 47.6927 20.1265 46.8256 20.7062C45.9586 21.286 45.2805 21.7988 44.7913 22.2447C44.3022 22.6907 43.7686 22.869 43.1906 22.7799C42.6125 22.6907 42.0234 22.6572 41.4231 22.6795C40.8228 22.7018 40.2559 22.7687 39.7223 22.8802C39.1887 22.9917 38.7107 23.1255 38.2883 23.2815C37.8659 23.4376 37.2767 23.7498 36.5208 24.218C35.7649 24.6863 35.1201 25.2214 34.5866 25.8234C34.053 26.4254 33.5639 27.1724 33.1192 28.0643C32.6746 28.9562 32.3522 29.8258 32.1521 30.673C31.952 31.5203 31.8408 32.4122 31.8186 33.3487C31.7964 34.2852 31.852 35.1325 31.9853 35.8906C32.1187 36.6487 32.3411 37.3845 32.6523 38.098C32.9636 38.8115 33.3415 39.4804 33.7862 40.1047C34.2308 40.729 34.7533 41.2865 35.3536 41.777C35.9539 42.2675 36.4096 42.5909 36.7209 42.7469C37.0322 42.903 37.3434 43.0145 37.6547 43.0814C37.9659 43.1483 38.0326 44.6087 37.8548 47.4628C37.6769 50.3168 37.5657 55.1107 37.5213 61.8444C37.4768 68.5782 37.3879 73.071 37.2545 75.323C37.1211 77.575 36.9655 79.2362 36.7876 80.3064C36.6097 81.3767 36.3541 82.447 36.0206 83.5172C35.6871 84.5875 35.2091 85.8027 34.5866 87.1628C33.9641 88.5229 33.2637 89.8719 32.4856 91.2097C31.7074 92.5476 30.9293 94.0192 30.1512 95.6246C29.373 97.23 28.706 98.735 28.1502 100.14C27.5944 101.544 27.1053 102.905 26.6829 104.22C26.2604 105.536 25.9714 106.528 25.8158 107.197C25.738 107.531 25.6602 107.866 25.5823 108.2C25.2155 107.888 24.8487 107.576 24.4818 107.264C23.7482 106.639 22.681 105.58 21.2803 104.086C19.8797 102.592 18.6235 101.121 17.5119 99.6715C16.4003 98.2222 15.4109 96.8175 14.5438 95.4573C13.6768 94.0972 12.8431 92.6479 12.0427 91.1094C11.2423 89.5709 10.542 88.077 9.94169 86.6277C9.34141 85.1784 8.75225 83.5284 8.1742 81.6777C7.59615 79.8271 7.1515 78.1882 6.84024 76.7612C6.52898 75.3342 6.23996 73.5281 5.97317 71.343C5.70638 69.1579 5.56186 66.9728 5.53963 64.7876C5.5174 62.6025 5.60633 60.5066 5.80642 58.4999C6.00652 56.4931 6.32889 54.4306 6.77354 52.3124C7.21819 50.1942 7.75178 48.1651 8.37429 46.2253C8.99681 44.2854 9.73048 42.3679 10.5753 40.4726C11.4202 38.5774 12.3539 36.749 13.3766 34.9875C14.3993 33.2261 15.511 31.5203 16.7115 29.8703C17.9121 28.2204 18.9904 26.8491 19.9464 25.7565C20.9024 24.664 21.8473 23.6494 22.781 22.713C23.7148 21.7765 24.7597 20.8066 25.9158 19.8032C27.0719 18.7998 28.1391 17.9302 29.1173 17.1944C30.0956 16.4586 31.0738 15.7674 32.052 15.1208C33.0303 14.4742 34.4865 13.6269 36.4208 12.5789C38.355 11.531 40.1558 10.6614 41.8233 9.97016C43.4907 9.27895 44.8358 8.76612 45.8585 8.43166C46.8812 8.0972 47.9484 7.78504 49.06 7.49518C50.1716 7.20532 51.5723 6.90431 53.262 6.59215C54.9517 6.27999 56.8637 6.03472 58.998 5.85634C61.1323 5.67796 63.0443 5.59992 64.734 5.62222ZM64.6006 22.2782C63.9781 22.3451 63.5446 22.4343 63.3 22.5457C63.1777 22.6015 63.0554 22.6572 62.9332 22.713C63.3111 22.7241 63.6891 22.7353 64.067 22.7464C64.8229 22.7687 65.2898 22.8133 65.4677 22.8802C65.5566 22.9136 65.6456 22.9471 65.7345 22.9805C65.3343 23.0586 64.9341 23.1366 64.5339 23.2147C63.7335 23.3707 63.111 23.5268 62.6664 23.6829C62.2217 23.839 61.7993 24.0285 61.3991 24.2515C61.199 24.363 60.9989 24.4744 60.7988 24.5859C60.9878 24.5748 61.1768 24.5636 61.3658 24.5525C61.5547 24.5413 61.7437 24.5302 61.9327 24.519C61.6881 24.7197 61.4436 24.9204 61.199 25.1211C60.7099 25.5224 60.1874 26.091 59.6316 26.8268C59.0758 27.5626 58.6534 28.2315 58.3644 28.8335C58.0753 29.4356 57.8197 30.1937 57.5973 31.1078C57.375 32.022 57.2638 32.6352 57.2638 32.9473C57.2638 33.1034 57.2638 33.2595 57.2638 33.4156C57.3972 33.3487 57.5306 33.2818 57.664 33.2149C57.9308 33.0811 58.0865 33.0254 58.1309 33.0477C58.1532 33.0588 58.1754 33.07 58.1976 33.0811C57.9864 33.3821 57.7752 33.6832 57.564 33.9842C57.1416 34.5862 56.7858 35.0098 56.4968 35.2551C56.3523 35.3777 56.2078 35.5004 56.0633 35.623C56.2745 35.623 56.4857 35.623 56.6969 35.623C56.9081 35.623 57.1193 35.623 57.3305 35.623C57.1305 35.6899 56.9304 35.7568 56.7303 35.8237C56.3301 35.9575 56.0411 36.1135 55.8632 36.2919C55.7743 36.3811 55.6853 36.4703 55.5964 36.5595C56.1411 36.4257 56.6858 36.2919 57.2305 36.1581C57.7752 36.0244 58.3199 35.8906 58.8646 35.7568C58.6867 35.8794 58.5089 36.0021 58.331 36.1247C57.9753 36.37 57.7863 36.526 57.7641 36.5929C57.753 36.6264 57.7419 36.6598 57.7307 36.6933C58.1976 36.6821 58.6645 36.671 59.1314 36.6598C59.5983 36.6487 60.0652 36.6375 60.532 36.6264C60.3097 36.7825 60.0874 36.9385 59.8651 37.0946C59.6427 37.2507 59.4204 37.4068 59.1981 37.5629C59.665 37.5294 60.1319 37.496 60.5987 37.4625C61.0656 37.4291 61.5325 37.3956 61.9994 37.3622C61.8994 37.4625 61.7993 37.5629 61.6993 37.6632C61.5992 37.7635 61.4992 37.8639 61.3991 37.9642C61.7215 37.9419 62.0439 37.9196 62.3662 37.8973C62.6886 37.875 63.011 37.8527 63.3334 37.8304C63.1888 37.9531 63.0443 38.0757 62.8998 38.1983C62.7553 38.321 62.6108 38.4436 62.4663 38.5662C63.0332 38.4993 63.6001 38.4324 64.1671 38.3656C64.734 38.2987 65.3009 38.2318 65.8679 38.1649C65.7234 38.3098 65.5789 38.4547 65.4343 38.5997C65.2898 38.7446 65.1453 38.8895 65.0008 39.0345C65.3343 38.9676 65.6678 38.9007 66.0013 38.8338C66.6683 38.7 67.4686 38.5997 68.4024 38.5328C68.8693 38.4993 69.3362 38.4659 69.8031 38.4324C69.8031 38.4547 69.8031 38.477 69.8031 38.4993C69.8031 38.5439 69.5363 38.6777 69.0027 38.9007C68.4691 39.1237 67.9244 39.4135 67.3686 39.7703C66.8128 40.127 66.2458 40.5395 65.6678 41.0078C65.0897 41.476 64.634 41.8885 64.3005 42.2453C64.1337 42.4236 63.967 42.602 63.8002 42.7804C64.3783 42.3456 64.9563 41.9108 65.5344 41.476C66.6905 40.6064 67.4909 40.049 67.9355 39.8037C68.3802 39.5584 68.8582 39.3466 69.3695 39.1682C69.8809 38.9899 70.1588 38.9118 70.2032 38.9341C70.2255 38.9453 70.2477 38.9564 70.2699 38.9676C70.0143 39.2128 69.7586 39.4581 69.5029 39.7034C69.2472 39.9486 68.9916 40.1939 68.7359 40.4392C69.0694 40.35 69.4029 40.2608 69.7364 40.1716C70.4033 39.9932 70.9925 39.8706 71.5039 39.8037C71.7595 39.7703 72.0152 39.7368 72.2709 39.7034C72.1486 39.8595 72.0263 40.0155 71.904 40.1716C71.7818 40.3277 71.6595 40.4838 71.5372 40.6399C71.8929 40.5507 72.2486 40.4615 72.6044 40.3723C72.9601 40.2831 73.3158 40.1939 73.6715 40.1047C73.4492 40.2162 73.2269 40.3277 73.0046 40.4392C72.7822 40.5507 72.5599 40.6622 72.3376 40.7736C72.4821 40.7848 72.6266 40.7959 72.7711 40.8071C73.0601 40.8294 73.4492 40.7959 73.9383 40.7067C74.4274 40.6176 74.8832 40.4838 75.3056 40.3054C75.7281 40.127 75.9837 39.9932 76.0727 39.9041C76.1171 39.8595 76.1616 39.8149 76.2061 39.7703C75.917 39.7703 75.628 39.7703 75.339 39.7703C75.05 39.7703 74.7609 39.7703 74.4719 39.7703C74.6942 39.6699 74.9166 39.5696 75.1389 39.4693C75.5835 39.2686 76.0393 39.1014 76.5062 38.9676C76.9731 38.8338 77.4955 38.7223 78.0736 38.6331C78.6516 38.5439 79.3186 38.4993 80.0745 38.4993C80.8304 38.4993 81.5308 38.5439 82.1755 38.6331C82.4979 38.6777 82.8203 38.7223 83.1426 38.7669C83.0426 38.7223 82.9425 38.6777 82.8425 38.6331C82.6424 38.5439 82.2422 38.4436 81.6419 38.3321C81.0416 38.2206 80.3413 38.1649 79.5409 38.1649C78.7406 38.1649 77.8624 38.2318 76.9064 38.3656C76.4284 38.4324 75.9504 38.4993 75.4724 38.5662C75.8059 38.3878 76.1394 38.2095 76.4728 38.0311C77.1398 37.6743 77.4955 37.4625 77.54 37.3956C77.5622 37.3622 77.5845 37.3287 77.6067 37.2953C77.5289 37.273 77.4511 37.2507 77.3733 37.2284C77.2955 37.2061 77.2176 37.1838 77.1398 37.1615C77.4511 37.0835 77.7623 37.0054 78.0736 36.9274C78.6961 36.7713 79.352 36.7267 80.0412 36.7936C80.7304 36.8605 81.4974 37.0389 82.3423 37.3287C82.7647 37.4737 83.1871 37.6186 83.6095 37.7635C83.365 37.6074 83.1204 37.4514 82.8758 37.2953C82.3867 36.9831 81.9532 36.7713 81.5752 36.6598C81.1973 36.5483 80.7526 36.4591 80.2413 36.3923C79.7299 36.3254 78.8962 36.2919 77.7401 36.2919C77.1621 36.2919 76.584 36.2919 76.006 36.2919C76.2283 36.225 76.4506 36.1581 76.6729 36.0912C77.1176 35.9575 77.7623 35.8571 78.6072 35.7902C79.0296 35.7568 79.452 35.7233 79.8744 35.6899C79.7633 35.6342 79.6521 35.5784 79.5409 35.5227C79.4298 35.4669 79.3186 35.4112 79.2075 35.3554C79.3297 35.322 79.452 35.2885 79.5743 35.2551C79.6966 35.2217 79.8189 35.1882 79.9411 35.1548C79.5632 35.0767 79.1852 34.9987 78.8073 34.9206C78.4293 34.8426 78.0514 34.7646 77.6734 34.6865C77.9958 34.6865 78.3182 34.6865 78.6405 34.6865C79.2853 34.6865 79.9856 34.7646 80.7415 34.9206C81.1195 34.9987 81.4974 35.0767 81.8754 35.1548C81.4863 34.9541 81.0972 34.7534 80.7082 34.5527C79.93 34.1514 79.5409 33.9284 79.5409 33.8838C79.5409 33.8615 79.5409 33.8392 79.5409 33.8169C79.7966 33.8727 80.0523 33.9284 80.308 33.9842C80.8193 34.0957 81.2417 34.2294 81.5752 34.3855C81.9087 34.5416 82.0866 34.5973 82.1088 34.5527C82.131 34.5081 81.842 34.1514 81.2417 33.4825C80.6415 32.8136 80.119 32.3453 79.6743 32.0778C79.2297 31.8102 78.8629 31.6318 78.5738 31.5426C78.2848 31.4534 77.9624 31.2528 77.6067 30.9406C77.251 30.6284 76.9286 30.216 76.6396 29.7031C76.3506 29.1903 75.9948 28.4545 75.5724 27.4957C75.15 26.5369 74.7498 25.8011 74.3719 25.2883C73.9939 24.7755 73.5604 24.3072 73.0713 23.8836C72.5821 23.4599 72.0485 23.1032 71.4705 22.8133C70.8925 22.5234 70.4256 22.3451 70.0698 22.2782C69.892 22.2447 69.7141 22.2113 69.5363 22.1778C69.6919 22.2893 69.8475 22.4008 70.0031 22.5123C70.3144 22.7353 70.6368 23.0251 70.9703 23.3819C71.3038 23.7386 71.4594 23.9393 71.4372 23.9839C71.426 24.0062 71.4149 24.0285 71.4038 24.0508C71.137 23.8947 70.8702 23.7386 70.6034 23.5826C70.0698 23.2704 69.5696 23.0251 69.1027 22.8468C68.6358 22.6684 68.1578 22.5234 67.6687 22.412C67.1796 22.3005 66.7016 22.2336 66.2347 22.2113C65.7678 22.189 65.2231 22.2113 64.6006 22.2782ZM42.557 23.5157C43.0683 23.5603 43.5797 23.694 44.091 23.917C44.6024 24.14 45.0804 24.4521 45.525 24.8535C45.9697 25.2548 46.2809 25.6339 46.4588 25.9906C46.5477 26.169 46.6367 26.3474 46.7256 26.5258C46.4921 26.3474 46.2587 26.169 46.0253 25.9906C45.5584 25.6339 45.1248 25.3552 44.7246 25.1545C44.3245 24.9538 43.8465 24.7866 43.2906 24.6528C42.7348 24.519 42.2012 24.4521 41.6899 24.4521C41.1785 24.4521 40.7005 24.4967 40.2559 24.5859C39.8112 24.6751 39.3443 24.82 38.8552 25.0207C38.3661 25.2214 37.9437 25.4444 37.588 25.6896C37.2322 25.9349 36.8876 26.2359 36.5542 26.5927C36.2207 26.9494 35.9428 27.3285 35.7204 27.7298C35.4981 28.1312 35.3091 28.6217 35.1535 29.2014C34.9979 29.7812 34.8867 30.3386 34.82 30.8737C34.7533 31.4088 34.7311 32.0778 34.7533 32.8805C34.7755 33.6832 34.8534 34.3744 34.9868 34.9541C35.1201 35.5338 35.2647 36.0132 35.4203 36.3923C35.5759 36.7713 35.7982 37.1838 36.0873 37.6297C36.3763 38.0757 36.6764 38.4547 36.9877 38.7669C37.2989 39.0791 37.5102 39.2574 37.6213 39.302C37.6769 39.3243 37.7325 39.3466 37.7881 39.3689C37.7547 39.3801 37.7214 39.3912 37.688 39.4024C37.6213 39.4247 37.4435 39.3466 37.1544 39.1682C36.8654 38.9899 36.5764 38.7669 36.2874 38.4993C35.9983 38.2318 35.7204 37.8973 35.4536 37.496C35.1868 37.0946 34.9645 36.671 34.7867 36.225C34.6088 35.7791 34.4532 35.2105 34.3198 34.5193C34.1864 33.8281 34.1197 33.0477 34.1197 32.1781C34.1197 31.3085 34.1641 30.5727 34.2531 29.9707C34.342 29.3687 34.4532 28.8781 34.5866 28.4991C34.72 28.12 34.8978 27.741 35.1201 27.3619C35.3425 26.9829 35.6982 26.5369 36.1873 26.0241C36.6764 25.5113 37.2656 25.0542 37.9548 24.6528C38.644 24.2515 39.1998 23.9839 39.6223 23.8501C40.0447 23.7163 40.5116 23.616 41.0229 23.5491C41.5343 23.4822 42.0456 23.4711 42.557 23.5157ZM68.5691 28.4656C68.9916 28.5102 69.3028 28.6217 69.5029 28.8001C69.703 28.9785 69.8142 29.2237 69.8364 29.5359C69.8586 29.848 69.7919 30.1045 69.6363 30.3051C69.4807 30.5058 69.3139 30.6396 69.1361 30.7065C68.9582 30.7734 68.7692 30.7957 68.5691 30.7734C68.369 30.7511 68.0022 30.517 67.4686 30.071C66.935 29.6251 66.6683 29.3352 66.6683 29.2014C66.6683 29.0676 66.7127 28.9562 66.8016 28.867C66.8906 28.7778 67.1018 28.6774 67.4353 28.566C67.7688 28.4545 68.1467 28.421 68.5691 28.4656ZM65.5344 29.6362C65.6678 29.6585 65.7678 29.7143 65.8345 29.8035C65.9012 29.8926 65.9346 30.0153 65.9346 30.1714C65.9346 30.3274 65.879 30.4501 65.7678 30.5393C65.6567 30.6284 65.5344 30.6619 65.401 30.6396C65.2676 30.6173 65.1676 30.5616 65.1009 30.4724C65.0342 30.3832 65.0008 30.2717 65.0008 30.1379C65.0008 30.0041 65.0564 29.8815 65.1676 29.77C65.2787 29.6585 65.401 29.6139 65.5344 29.6362ZM65.3343 34.1514C65.6789 34.2406 66.0235 34.3298 66.3681 34.419C67.0573 34.5973 67.8021 34.6754 68.6025 34.6531C69.0027 34.6419 69.4029 34.6308 69.8031 34.6196C69.5807 34.6642 69.3584 34.7088 69.1361 34.7534C68.6914 34.8426 68.3135 34.8872 68.0022 34.8872C67.691 34.8872 67.2797 34.8315 66.7683 34.72C66.2569 34.6085 65.8901 34.4859 65.6678 34.3521C65.5566 34.2852 65.4455 34.2183 65.3343 34.1514ZM103.319 38.0645C102.896 38.1314 102.552 38.2318 102.285 38.3656C102.152 38.4324 102.018 38.4993 101.885 38.5662C102.129 38.5216 102.374 38.477 102.618 38.4324C103.108 38.3433 103.997 38.321 105.286 38.3656C105.931 38.3878 106.576 38.4101 107.221 38.4324C106.954 38.3656 106.687 38.2987 106.42 38.2318C105.887 38.098 105.342 38.0199 104.786 37.9976C104.23 37.9754 103.741 37.9976 103.319 38.0645ZM102.885 39.5696C102.774 39.6142 102.663 39.6588 102.552 39.7034C102.907 39.7145 103.263 39.7257 103.619 39.7368C104.33 39.7591 105.075 39.8483 105.853 40.0044C106.242 40.0824 106.631 40.1605 107.02 40.2385C106.954 40.1939 106.887 40.1493 106.82 40.1047C106.687 40.0155 106.354 39.8929 105.82 39.7368C105.286 39.5807 104.719 39.4916 104.119 39.4693C103.519 39.447 103.108 39.4804 102.885 39.5696ZM79.9078 39.8372C79.1296 39.9263 78.4182 40.0601 77.7735 40.2385C77.1287 40.4169 76.5618 40.5284 76.0727 40.573C75.5835 40.6176 75.1722 40.6845 74.8387 40.7736C74.5053 40.8628 74.2829 40.9409 74.1718 41.0078C74.1162 41.0412 74.0606 41.0747 74.005 41.1081C74.0384 41.1192 74.0717 41.1304 74.1051 41.1415C74.1718 41.1638 74.4608 41.1081 74.9721 40.9743C75.4835 40.8405 75.7836 40.7848 75.8726 40.8071C75.917 40.8182 75.9615 40.8294 76.006 40.8405C75.6947 41.0078 75.3834 41.175 75.0722 41.3422C74.4497 41.6767 73.9717 41.9888 73.6382 42.2787C73.4714 42.4236 73.3047 42.5686 73.1379 42.7135C73.6048 42.4571 74.0717 42.2007 74.5386 41.9442C75.4724 41.4314 76.3506 41.0301 77.1732 40.7402C77.9958 40.4503 78.7517 40.2608 79.4409 40.1716C80.1301 40.0824 80.9638 40.0267 81.9421 40.0044C82.4312 39.9932 82.9203 39.9821 83.4094 39.9709C83.2983 39.9375 83.1871 39.9041 83.0759 39.8706C82.8536 39.8037 82.4645 39.7591 81.9087 39.7368C81.3529 39.7145 80.6859 39.748 79.9078 39.8372ZM104.886 41.3422C105.509 41.5763 106.131 41.8105 106.754 42.0446C106.476 41.8773 106.198 41.7101 105.92 41.5429C105.364 41.2084 104.897 40.9855 104.519 40.874C104.141 40.7625 103.797 40.6956 103.485 40.6733C103.33 40.6622 103.174 40.651 103.019 40.6399C103.641 40.874 104.264 41.1081 104.886 41.3422ZM81.2417 41.4426C79.8411 41.6655 78.2292 42.0111 76.4061 42.4794C74.5831 42.9476 72.5932 43.5719 70.4367 44.3523C68.2801 45.1327 66.9239 45.6567 66.3681 45.9243C65.8123 46.1918 65.4121 46.4148 65.1676 46.5932C65.0453 46.6824 64.923 46.7716 64.8007 46.8608C65.5789 46.5263 66.357 46.1918 67.1351 45.8574C68.6914 45.1885 69.9476 44.6868 70.9036 44.3523C71.8596 44.0179 73.0824 43.65 74.572 43.2486C76.0615 42.8473 77.8957 42.4125 80.0745 41.9442C82.2533 41.476 83.3761 41.2307 83.4428 41.2084C83.4761 41.1973 83.5095 41.1861 83.5428 41.175C83.5095 41.1638 83.4761 41.1527 83.4428 41.1415C83.3761 41.1192 82.6424 41.2196 81.2417 41.4426ZM104.953 42.4794C105.709 42.9922 106.276 43.4493 106.654 43.8506C107.032 44.252 107.432 44.776 107.854 45.4226C108.277 46.0692 108.566 46.4706 108.721 46.6266C108.799 46.7047 108.877 46.7827 108.955 46.8608C108.855 46.6489 108.755 46.4371 108.655 46.2253C108.454 45.8016 108.121 45.2777 107.654 44.6533C107.187 44.029 106.698 43.4939 106.187 43.0479C105.675 42.602 105.153 42.2675 104.619 42.0446C104.353 41.9331 104.086 41.8216 103.819 41.7101C104.197 41.9665 104.575 42.223 104.953 42.4794ZM103.385 42.2787C103.674 42.6132 103.952 42.9922 104.219 43.4159C104.486 43.8395 104.864 44.6422 105.353 45.8239C105.598 46.4148 105.842 47.0057 106.087 47.5966C105.987 47.1952 105.887 46.7939 105.787 46.3925C105.586 45.5898 105.353 44.8986 105.086 44.3189C104.819 43.7392 104.486 43.2152 104.086 42.7469C103.686 42.2787 103.397 42 103.219 41.9108C103.13 41.8662 103.041 41.8216 102.952 41.777C103.096 41.9442 103.241 42.1115 103.385 42.2787ZM81.0083 42.9476C80.2079 43.3713 79.5965 43.7949 79.1741 44.2185C78.9629 44.4304 78.7517 44.6422 78.5405 44.854C78.9518 44.5642 79.3631 44.2743 79.7744 43.9844C80.597 43.4047 81.2417 42.9922 81.7086 42.7469C81.9421 42.6243 82.1755 42.5017 82.409 42.379C82.3756 42.3679 82.3423 42.3567 82.3089 42.3456C82.2422 42.3233 81.8087 42.524 81.0083 42.9476ZM39.4889 43.1817C39.5444 43.1817 39.6 43.1817 39.6556 43.1817C39.689 46.8273 39.7223 50.4729 39.7557 54.1185C39.8223 61.4096 39.8223 66.4042 39.7557 69.1021C39.689 71.8001 39.5556 74.1301 39.3555 76.0923C39.1554 78.0544 38.8997 79.8159 38.5884 81.3767C38.2772 82.9375 37.9103 84.3868 37.4879 85.7246C37.0655 87.0625 36.5764 88.3446 36.0206 89.5709C35.4648 90.7972 34.8756 91.9678 34.2531 93.0827C33.6306 94.1976 32.9636 95.6134 32.2521 97.3303C31.5407 99.0472 30.9071 100.864 30.3512 102.782C29.7954 104.7 29.373 106.483 29.084 108.133C28.795 109.783 28.6282 110.608 28.5838 110.608C28.5393 110.608 28.3725 110.497 28.0835 110.274C27.7945 110.051 27.6389 109.828 27.6166 109.605C27.5944 109.382 27.8945 108.044 28.5171 105.591C29.1396 103.139 29.7954 100.976 30.4846 99.1029C31.1739 97.23 31.7074 95.9033 32.0854 95.1229C32.4633 94.3425 32.9858 93.3726 33.6528 92.2131C34.3198 91.0537 34.9201 89.8942 35.4536 88.7348C35.9872 87.5753 36.4652 86.3601 36.8876 85.0892C37.3101 83.8182 37.6658 82.4804 37.9548 81.0757C38.2438 79.671 38.455 78.4 38.5884 77.2629C38.7218 76.1257 38.8219 74.9663 38.8886 73.7845C38.9553 72.6028 38.9997 69.0352 39.022 63.0819C39.0442 57.1286 39.0331 52.8587 38.9886 50.2722C38.9442 47.6857 38.9442 45.8685 38.9886 44.8206C39.0331 43.7726 39.0998 43.2375 39.1887 43.2152C39.2776 43.1929 39.3777 43.1817 39.4889 43.1817ZM100.684 43.7169C100.706 43.7169 100.729 43.7169 100.751 43.7169C100.751 43.9733 100.751 44.2297 100.751 44.4861C100.751 44.9989 100.718 45.378 100.651 45.6233C100.584 45.8685 100.462 46.1584 100.284 46.4929C100.106 46.8273 99.8505 47.1729 99.517 47.5297C99.1835 47.8864 98.8945 48.154 98.6499 48.3324C98.4053 48.5107 98.0496 48.7114 97.5827 48.9344C97.1158 49.1574 96.6712 49.3246 96.2488 49.4361C95.8263 49.5476 95.4484 49.6145 95.1149 49.6367C94.9482 49.6479 94.7814 49.659 94.6147 49.6702C94.8703 49.4249 95.126 49.1797 95.3817 48.9344C95.893 48.4439 96.2599 48.0314 96.4822 47.6969C96.7045 47.3624 96.938 47.1618 97.1825 47.0949C97.4271 47.028 97.7939 46.8496 98.2831 46.5597C98.7722 46.2699 99.2057 45.9131 99.5837 45.4895C99.9616 45.0658 100.228 44.6645 100.384 44.2854C100.54 43.9064 100.64 43.7169 100.684 43.7169ZM81.842 57.2624C82.031 57.2735 82.22 57.2847 82.409 57.2958C82.2311 57.3961 82.0532 57.4965 81.8754 57.5968C81.5197 57.7975 81.1417 58.0539 80.7415 58.3661C80.3413 58.6782 79.8411 59.1353 79.2408 59.7373C78.6405 60.3394 78.0514 61.0306 77.4733 61.811C76.8953 62.5914 76.3394 63.4833 75.8059 64.4866C75.2723 65.49 74.8165 66.4934 74.4386 67.4967C74.0606 68.5001 73.7716 69.3697 73.5715 70.1055C73.3714 70.8413 73.1824 71.6775 73.0046 72.6139C72.8267 73.5504 72.6933 74.42 72.6044 75.2227C72.5154 76.0254 72.4932 77.1848 72.5377 78.7011C72.5821 80.2173 72.7378 81.7335 73.0046 83.2497C73.2713 84.7659 73.6048 86.2152 74.005 87.5976C74.4052 88.98 75.0722 90.8418 76.006 93.183C76.9397 95.5242 77.6512 97.609 78.1403 99.4374C78.6294 101.266 78.974 102.659 79.1741 103.618C79.3742 104.577 79.641 106.138 79.9745 108.3C80.308 110.463 80.5859 112.949 80.8082 115.759C81.0305 118.568 80.4747 120.163 79.1408 120.542C77.8068 120.921 76.2616 121.266 74.5053 121.578C72.7489 121.891 71.0925 122.125 69.5363 122.281C67.98 122.437 66.5904 122.526 65.3676 122.548C64.1448 122.571 63.3667 121.79 63.0332 120.207C62.6997 118.624 62.1995 116.695 61.5325 114.421C60.8655 112.147 60.3875 110.408 60.0985 109.204C59.954 108.601 59.8095 107.999 59.665 107.397C59.5872 107.721 59.5093 108.044 59.4315 108.367C59.2759 109.014 59.1092 109.973 58.9313 111.244C58.7534 112.515 58.5756 114.41 58.3977 116.929C58.3088 118.189 58.2199 119.449 58.1309 120.709C57.9531 119.784 57.7752 118.858 57.5973 117.933C57.2416 116.082 56.9748 114.343 56.797 112.715C56.6191 111.088 56.5079 109.081 56.4635 106.695C56.419 104.309 56.4301 102.67 56.4968 101.779C56.5302 101.333 56.5635 100.887 56.5969 100.441C56.5191 100.575 56.4412 100.708 56.3634 100.842C56.2078 101.11 55.9299 101.801 55.5297 102.916C55.1295 104.031 54.7627 105.223 54.4292 106.494C54.0957 107.765 53.8289 108.925 53.6288 109.973C53.5288 110.497 53.4287 111.021 53.3287 111.545C53.3064 111.511 53.2842 111.478 53.262 111.444C53.2175 111.377 53.1953 109.694 53.1953 106.394C53.1953 103.094 53.2731 99.7941 53.4287 96.4942C53.5065 94.8442 53.5843 93.1942 53.6622 91.5442C53.5732 91.7114 53.4843 91.8787 53.3954 92.0459C53.2175 92.3803 52.973 92.9712 52.6617 93.8185C52.3504 94.6658 52.0392 95.7361 51.7279 97.0293C51.4167 98.3225 51.1943 99.1475 51.0609 99.5043C50.9942 99.6826 50.9275 99.861 50.8609 100.039C50.9609 98.6124 51.0609 97.1854 51.161 95.7584C51.3611 92.9043 51.6501 90.1283 52.0281 87.4304C52.217 86.0814 52.406 84.7324 52.595 83.3834C52.3616 83.8071 52.1281 84.2307 51.8947 84.6544C51.4278 85.5017 50.8831 86.65 50.2606 88.0993C49.9493 88.8239 49.6381 89.5486 49.3268 90.2733C49.4491 89.5375 49.5714 88.8017 49.6936 88.0658C49.9382 86.5942 50.4273 84.2196 51.161 80.9419C51.5278 79.3031 51.8947 77.6642 52.2615 76.0254C52.0169 76.4267 51.7724 76.8281 51.5278 77.2294C51.0387 78.0321 50.5829 78.9352 50.1605 79.9385C49.9493 80.4402 49.7381 80.9419 49.5269 81.4436C49.5714 81.1537 49.6158 80.8639 49.6603 80.574C49.7492 79.9943 49.9604 79.1916 50.2939 78.1659C50.6274 77.1403 50.9942 76.2038 51.3944 75.3565C51.7946 74.5092 52.3393 73.5616 53.0285 72.5136C53.7177 71.4656 54.3625 70.6183 54.9628 69.9717C55.2629 69.6484 55.5631 69.3251 55.8632 69.0018C55.6853 69.0464 55.5075 69.091 55.3296 69.1356C54.9739 69.2248 54.3958 69.5704 53.5955 70.1724C53.1953 70.4734 52.7951 70.7744 52.3949 71.0754C52.5616 70.7521 52.7284 70.4288 52.8951 70.1055C53.2286 69.4589 53.6733 68.8123 54.2291 68.1657C54.7849 67.519 55.4741 66.8724 56.2967 66.2258C57.1193 65.5792 58.0753 64.9549 59.1647 64.3529C60.2541 63.7508 61.199 63.2937 61.9994 62.9816C62.7998 62.6694 64.1226 62.2235 65.9679 61.6438C66.8906 61.3539 67.8132 61.064 68.7359 60.7742C67.8688 60.763 67.0017 60.7519 66.1347 60.7407C65.2676 60.7296 64.4005 60.7184 63.5335 60.7073C64.1448 60.4732 64.7562 60.239 65.3676 60.0049C66.5904 59.5367 67.9689 59.113 69.5029 58.734C71.037 58.3549 72.9045 58.0205 75.1055 57.7306C77.3066 57.4407 78.8851 57.2847 79.8411 57.2624C80.7971 57.2401 81.4641 57.2401 81.842 57.2624Z" fill="#404040" fill-rule="nonzero" opacity="1" stroke="none"/>
<g opacity="1">
<mask height="128" id="StrokeMask" maskUnits="userSpaceOnUse" width="128" x="-1.42109e-14" y="0">
<rect fill="#000000" height="128" stroke="none" width="128" x="-1.42109e-14" y="0"/>
<use fill="#ffffff" fill-rule="evenodd" stroke="none" xlink:href="#Fill"/>
</mask>
<use fill="none" mask="url(#StrokeMask)" stroke="#000000" stroke-linecap="butt" stroke-linejoin="round" stroke-width="11.2" xlink:href="#Fill"/>
</g>
</g>
</svg>
